<?xml version="1.0" encoding="UTF-8" standalone="no"?>
<!DOCTYPE svg PUBLIC "-//W3C//DTD SVG 1.1//EN" "http://www.w3.org/Graphics/SVG/1.1/DTD/svg11.dtd">
<svg width="100%" height="100%" viewBox="0 0 512 512" version="1.1" xmlns="http://www.w3.org/2000/svg" xmlns:xlink="http://www.w3.org/1999/xlink" xml:space="preserve" xmlns:serif="http://www.serif.com/" style="fill-rule:evenodd;clip-rule:evenodd;stroke-linejoin:round;stroke-miterlimit:2;">
    <g id="_8-Email">
        <path d="M256,0C397.29,0 512,114.71 512,256C512,397.29 397.29,512 256,512C114.71,512 0,397.29 0,256C0,114.71 114.71,0 256,0ZM406.706,132.994L105.294,132.994C89.64,132.994 76.758,145.875 76.758,161.529C76.758,161.529 76.758,362.471 76.758,362.471C76.758,378.125 89.64,391.006 105.294,391.006C105.294,391.006 406.706,391.006 406.706,391.006C422.36,391.006 435.242,378.125 435.242,362.471C435.242,362.471 435.242,161.529 435.242,161.529C435.242,145.875 422.36,132.994 406.706,132.994ZM125.152,362.641L220.709,267.083L247.277,287.646C252.36,291.559 259.496,291.559 264.58,287.646L291.281,267.074C291.281,267.074 386.848,362.641 386.848,362.641C386.848,362.641 125.152,362.641 125.152,362.641L125.152,362.641ZM105.124,342.605L105.124,177.666C105.124,177.666 198.125,249.544 198.125,249.544L105.124,342.605ZM406.876,342.605L313.875,249.544C313.875,249.544 406.876,177.666 406.876,177.666L406.876,342.605ZM381.594,161.359L256,258.455C237.454,244.117 163.552,186.985 130.406,161.359L381.594,161.359Z" style="fill:rgb(61,64,91);"/>
    </g>
</svg>
